<?xml version="1.0" encoding="UTF-8" standalone="no"?>
<!DOCTYPE svg PUBLIC "-//W3C//DTD SVG 1.1//EN" "http://www.w3.org/Graphics/SVG/1.1/DTD/svg11.dtd">
<svg version="1.1" xmlns="http://www.w3.org/2000/svg" xmlns:xlink="http://www.w3.org/1999/xlink" preserveAspectRatio="xMidYMid meet" viewBox="0 0 640 640" width="640" height="640"><defs><path d="M34.76 10.3C59.76 10.3 259.76 10.3 284.76 10.3C296.26 10.3 305.59 19.64 305.59 31.14C305.59 66.55 305.59 349.89 305.59 385.3C305.59 396.8 296.26 406.14 284.76 406.14C259.76 406.14 59.76 406.14 34.76 406.14C23.26 406.14 13.92 396.8 13.92 385.3C13.92 314.47 13.92 101.97 13.92 31.14C13.92 19.64 23.26 10.3 34.76 10.3ZM263.92 51.97L263.92 364.47L55.59 364.47L55.59 51.97L263.92 51.97ZM368.09 239.47C393.09 239.47 593.09 239.47 618.09 239.47C629.59 239.47 638.92 248.8 638.92 260.3C638.92 295.72 638.92 579.05 638.92 614.47C638.92 625.97 629.59 635.3 618.09 635.3C593.09 635.3 393.09 635.3 368.09 635.3C356.59 635.3 347.26 625.97 347.26 614.47C347.26 543.64 347.26 331.14 347.26 260.3C347.26 248.8 356.59 239.47 368.09 239.47ZM597.26 281.14L597.26 593.64L388.92 593.64L388.92 281.14L597.26 281.14Z" id="b1aoQEWTvj"></path><path d="M34.76 10.3C59.76 10.3 259.76 10.3 284.76 10.3C296.26 10.3 305.59 19.64 305.59 31.14C305.59 66.55 305.59 349.89 305.59 385.3C305.59 396.8 296.26 406.14 284.76 406.14C259.76 406.14 59.76 406.14 34.76 406.14C23.26 406.14 13.92 396.8 13.92 385.3C13.92 314.47 13.92 101.97 13.92 31.14C13.92 19.64 23.26 10.3 34.76 10.3ZM263.92 51.97L263.92 364.47L55.59 364.47L55.59 51.97L263.92 51.97ZM368.09 239.47C393.09 239.47 593.09 239.47 618.09 239.47C629.59 239.47 638.92 248.8 638.92 260.3C638.92 295.72 638.92 579.05 638.92 614.47C638.92 625.97 629.59 635.3 618.09 635.3C593.09 635.3 393.09 635.3 368.09 635.3C356.59 635.3 347.26 625.97 347.26 614.47C347.26 543.64 347.26 331.14 347.26 260.3C347.26 248.8 356.59 239.47 368.09 239.47ZM597.26 281.14L597.26 593.64L388.92 593.64L388.92 281.14L597.26 281.14Z" id="k2oKwP7ghs"></path><path d="M368.09 10.3C393.09 10.3 593.09 10.3 618.09 10.3C629.59 10.3 638.92 19.64 638.92 31.14C638.92 45.72 638.92 162.39 638.92 176.97C638.92 188.47 629.59 197.8 618.09 197.8C593.09 197.8 393.09 197.8 368.09 197.8C356.59 197.8 347.26 188.47 347.26 176.97C347.26 147.8 347.26 60.3 347.26 31.14C347.26 19.64 356.59 10.3 368.09 10.3ZM597.26 51.97L597.26 156.14L388.92 156.14L388.92 51.97L597.26 51.97ZM34.76 447.8C59.76 447.8 259.76 447.8 284.76 447.8C296.26 447.8 305.59 457.14 305.59 468.64C305.59 483.22 305.59 599.89 305.59 614.47C305.59 625.97 296.26 635.3 284.76 635.3C259.76 635.3 59.76 635.3 34.76 635.3C23.26 635.3 13.92 625.97 13.92 614.47C13.92 585.3 13.92 497.8 13.92 468.64C13.92 457.14 23.26 447.8 34.76 447.8ZM263.92 489.47L263.92 593.64L55.59 593.64L55.59 489.47L263.92 489.47Z" id="apMX9eVbh"></path><path d="M368.09 10.3C393.09 10.3 593.09 10.3 618.09 10.3C629.59 10.3 638.92 19.64 638.92 31.14C638.92 45.72 638.92 162.39 638.92 176.97C638.92 188.47 629.59 197.8 618.09 197.8C593.09 197.8 393.09 197.8 368.09 197.8C356.59 197.8 347.26 188.47 347.26 176.97C347.26 147.8 347.26 60.3 347.26 31.14C347.26 19.64 356.59 10.3 368.09 10.3ZM597.26 51.97L597.26 156.14L388.92 156.14L388.92 51.97L597.26 51.97ZM34.76 447.8C59.76 447.8 259.76 447.8 284.76 447.8C296.26 447.8 305.59 457.14 305.59 468.64C305.59 483.22 305.59 599.89 305.59 614.47C305.59 625.97 296.26 635.3 284.76 635.3C259.76 635.3 59.76 635.3 34.76 635.3C23.26 635.3 13.92 625.97 13.92 614.47C13.92 585.3 13.92 497.8 13.92 468.64C13.92 457.14 23.26 447.8 34.76 447.8ZM263.92 489.47L263.92 593.64L55.59 593.64L55.59 489.47L263.92 489.47Z" id="b2LnCFggFf"></path></defs><g><g><g><use xlink:href="#b1aoQEWTvj" opacity="1" fill="#0fb7b0" fill-opacity="1"></use><g><use xlink:href="#b1aoQEWTvj" opacity="1" fill-opacity="0" stroke="#000000" stroke-width="1" stroke-opacity="0"></use></g></g><g><use xlink:href="#k2oKwP7ghs" opacity="1" fill="#000000" fill-opacity="0"></use><g><use xlink:href="#k2oKwP7ghs" opacity="1" fill-opacity="0" stroke="#000000" stroke-width="1" stroke-opacity="0"></use></g></g><g><use xlink:href="#apMX9eVbh" opacity="1" fill="#5f79aa" fill-opacity="0.97"></use><g><use xlink:href="#apMX9eVbh" opacity="1" fill-opacity="0" stroke="#000000" stroke-width="1" stroke-opacity="0"></use></g></g><g><use xlink:href="#b2LnCFggFf" opacity="1" fill="#000000" fill-opacity="0"></use><g><use xlink:href="#b2LnCFggFf" opacity="1" fill-opacity="0" stroke="#000000" stroke-width="1" stroke-opacity="0"></use></g></g></g></g></svg>