<?xml version="1.0" encoding="UTF-8" standalone="no"?>
<!DOCTYPE svg PUBLIC "-//W3C//DTD SVG 1.1//EN" "http://www.w3.org/Graphics/SVG/1.1/DTD/svg11.dtd">
<svg version="1.1" xmlns="http://www.w3.org/2000/svg" xmlns:xlink="http://www.w3.org/1999/xlink" preserveAspectRatio="xMidYMid meet" viewBox="0 0 640 640" width="640" height="640"><defs><path d="M62.54 53.58L62.54 53.58L61.79 53.58L62.54 53.58Z" id="fEf74wQJ6"></path><path d="M237.68 0C280.94 0 316.01 35.07 316.01 78.33C316.01 125.33 316.01 187.99 316.01 234.99C316.01 278.25 280.94 313.32 237.68 313.32C190.15 313.32 125.87 313.32 78.33 313.32C35.07 313.32 0 278.25 0 234.99C0 187.99 0 125.33 0 78.33C0 35.07 35.07 0 78.33 0C125.87 0 190.15 0 237.68 0Z" id="btvAud2Uo"></path><path d="M561.67 -1.49C604.93 -1.49 640 33.58 640 76.84C640 123.84 640 186.5 640 233.5C640 276.76 604.93 311.83 561.67 311.83C514.13 311.83 449.85 311.83 402.32 311.83C359.06 311.83 323.99 276.76 323.99 233.5C323.99 186.5 323.99 123.84 323.99 76.84C323.99 33.58 359.06 -1.49 402.32 -1.49C449.85 -1.49 514.13 -1.49 561.67 -1.49Z" id="cm2SlEOSm"></path><path d="M239.14 320C282.77 320 318.14 355.37 318.14 399C318.14 447.2 318.14 512.8 318.14 561C318.14 604.63 282.77 640 239.14 640C191.74 640 128.53 640 81.13 640C37.5 640 2.13 604.63 2.13 561C2.13 512.8 2.13 447.2 2.13 399C2.13 355.37 37.5 320 81.13 320C128.53 320 191.74 320 239.14 320Z" id="asaI3FeQj"></path><path d="M561 320C604.63 320 640 355.37 640 399C640 447.2 640 512.8 640 561C640 604.63 604.63 640 561 640C513.59 640 450.39 640 402.99 640C359.36 640 323.99 604.63 323.99 561C323.99 512.8 323.99 447.2 323.99 399C323.99 355.37 359.36 320 402.99 320C450.39 320 513.59 320 561 320Z" id="a2Q0V5Q0s4"></path></defs><g><g><g><use xlink:href="#fEf74wQJ6" opacity="1" fill="#cc84b8" fill-opacity="1"></use></g><g><use xlink:href="#btvAud2Uo" opacity="1" fill="#54b1b3" fill-opacity="1"></use></g><g><use xlink:href="#cm2SlEOSm" opacity="1" fill="#345380" fill-opacity="0.9"></use></g><g><use xlink:href="#asaI3FeQj" opacity="1" fill="#345380" fill-opacity="1"></use></g><g><use xlink:href="#a2Q0V5Q0s4" opacity="1" fill="#54b1b3" fill-opacity="1"></use></g></g></g></svg>