<?xml version="1.0" encoding="UTF-8" standalone="no"?>
<!DOCTYPE svg PUBLIC "-//W3C//DTD SVG 1.1//EN" "http://www.w3.org/Graphics/SVG/1.1/DTD/svg11.dtd">
<svg version="1.1" xmlns="http://www.w3.org/2000/svg" xmlns:xlink="http://www.w3.org/1999/xlink" preserveAspectRatio="xMidYMid meet" viewBox="0 0 640 640" width="640" height="640"><defs><path d="M62.54 53.58L62.54 53.58L61.79 53.58L62.54 53.58Z" id="b7XNuEOJg"></path><path d="M229.1 0C269.68 0 302.58 32.9 302.58 73.48C302.58 117.57 302.58 176.35 302.58 220.44C302.58 261.02 269.68 293.92 229.1 293.92C183.28 293.92 119.3 293.92 73.48 293.92C32.9 293.92 0 261.02 0 220.44C0 176.35 0 117.57 0 73.48C0 32.9 32.9 0 73.48 0C119.3 0 183.28 0 229.1 0Z" id="aOfb11gez"></path><path d="M566.52 -1.49C607.1 -1.49 640 31.41 640 71.99C640 116.08 640 174.86 640 218.95C640 259.53 607.1 292.43 566.52 292.43C520.7 292.43 456.72 292.43 410.9 292.43C370.32 292.43 337.42 259.53 337.42 218.95C337.42 174.86 337.42 116.08 337.42 71.99C337.42 31.41 370.32 -1.49 410.9 -1.49C456.72 -1.49 520.7 -1.49 566.52 -1.49Z" id="bCfVafca"></path><path d="M231.23 346.08C271.81 346.08 304.71 378.98 304.71 419.56C304.71 463.65 304.71 522.43 304.71 566.52C304.71 607.1 271.81 640 231.23 640C185.41 640 121.43 640 75.61 640C35.03 640 2.13 607.1 2.13 566.52C2.13 522.43 2.13 463.65 2.13 419.56C2.13 378.98 35.03 346.08 75.61 346.08C121.43 346.08 185.41 346.08 231.23 346.08Z" id="dgmoGzQxJ"></path><path d="M566.52 346.08C607.1 346.08 640 378.98 640 419.56C640 463.65 640 522.43 640 566.52C640 607.1 607.1 640 566.52 640C520.7 640 456.72 640 410.9 640C370.32 640 337.42 607.1 337.42 566.52C337.42 522.43 337.42 463.65 337.42 419.56C337.42 378.98 370.32 346.08 410.9 346.08C456.72 346.08 520.7 346.08 566.52 346.08Z" id="b1TLja37WC"></path></defs><g><g><g><use xlink:href="#b7XNuEOJg" opacity="1" fill="#cc84b8" fill-opacity="1"></use></g><g><use xlink:href="#aOfb11gez" opacity="1" fill="#54b1b3" fill-opacity="1"></use></g><g><use xlink:href="#bCfVafca" opacity="1" fill="#345380" fill-opacity="0.9"></use></g><g><use xlink:href="#dgmoGzQxJ" opacity="1" fill="#345380" fill-opacity="1"></use></g><g><use xlink:href="#b1TLja37WC" opacity="1" fill="#54b1b3" fill-opacity="1"></use></g></g></g></svg>