<?xml version="1.0" encoding="UTF-8" standalone="no"?>
<!DOCTYPE svg PUBLIC "-//W3C//DTD SVG 1.1//EN" "http://www.w3.org/Graphics/SVG/1.1/DTD/svg11.dtd">
<svg version="1.1" xmlns="http://www.w3.org/2000/svg" xmlns:xlink="http://www.w3.org/1999/xlink" preserveAspectRatio="xMidYMid meet" viewBox="0 0 640 640" width="1440" height="1440"><defs><path d="M218.4 389.93C218.4 387.17 220.64 384.93 223.4 384.93C229.4 384.93 277.4 384.93 283.4 384.93C286.16 384.93 288.4 387.17 288.4 389.93C288.4 398.43 288.4 466.43 288.4 474.93C288.4 477.69 286.16 479.93 283.4 479.93C277.4 479.93 229.4 479.93 223.4 479.93C220.64 479.93 218.4 477.69 218.4 474.93C218.4 457.93 218.4 406.93 218.4 389.93ZM228.4 394.93L278.4 394.93L278.4 469.93L228.4 469.93L228.4 394.93ZM298.4 444.93C298.4 442.17 300.64 439.93 303.4 439.93C309.4 439.93 357.4 439.93 363.4 439.93C366.16 439.93 368.4 442.17 368.4 444.93C368.4 453.43 368.4 521.43 368.4 529.93C368.4 532.69 366.16 534.93 363.4 534.93C357.4 534.93 309.4 534.93 303.4 534.93C300.64 534.93 298.4 532.69 298.4 529.93C298.4 512.93 298.4 461.93 298.4 444.93ZM308.4 449.93L358.4 449.93L358.4 524.93L308.4 524.93L308.4 449.93Z" id="e2y5KRKiyZ"></path><path d="M298.4 389.93C298.4 387.17 300.64 384.93 303.4 384.93C309.4 384.93 357.4 384.93 363.4 384.93C366.16 384.93 368.4 387.17 368.4 389.93C368.4 393.43 368.4 421.43 368.4 424.93C368.4 427.69 366.16 429.93 363.4 429.93C357.4 429.93 309.4 429.93 303.4 429.93C300.64 429.93 298.4 427.69 298.4 424.93C298.4 417.93 298.4 396.93 298.4 389.93ZM308.4 394.93L358.4 394.93L358.4 419.93L308.4 419.93L308.4 394.93ZM218.4 494.93C218.4 492.17 220.64 489.93 223.4 489.93C229.4 489.93 277.4 489.93 283.4 489.93C286.16 489.93 288.4 492.17 288.4 494.93C288.4 498.43 288.4 526.43 288.4 529.93C288.4 532.69 286.16 534.93 283.4 534.93C277.4 534.93 229.4 534.93 223.4 534.93C220.64 534.93 218.4 532.69 218.4 529.93C218.4 522.93 218.4 501.93 218.4 494.93ZM228.4 499.93L278.4 499.93L278.4 524.93L228.4 524.93L228.4 499.93Z" id="g5WhLhaECR"></path></defs><g><g><g><use xlink:href="#e2y5KRKiyZ" opacity="1" fill="#0fb7b0" fill-opacity="1"></use><g><use xlink:href="#e2y5KRKiyZ" opacity="1" fill-opacity="0" stroke="#000000" stroke-width="1" stroke-opacity="0"></use></g></g><g><use xlink:href="#g5WhLhaECR" opacity="1" fill="#5f79aa" fill-opacity="0.97"></use><g><use xlink:href="#g5WhLhaECR" opacity="1" fill-opacity="0" stroke="#000000" stroke-width="1" stroke-opacity="0"></use></g></g></g></g></svg>