<svg xmlns="http://www.w3.org/2000/svg" width="400" height="300" stroke="none" stroke-linecap="round" stroke-linejoin="round" fill="#fff" fill-rule="evenodd" font-family="Roboto" font-size="14" text-anchor="middle"><path d="M.5.5h400v300H.5z" fill="#EAEEF2"/><path d="M125 80a5 5 0 0 1 5-5h60a5 5 0 0 1 5 5v85a5 5 0 0 1-5 5h-60a5 5 0 0 1-5-5zm10 5h50v75h-50zm70 50a5 5 0 0 1 5-5h60a5 5 0 0 1 5 5v85a5 5 0 0 1-5 5h-60a5 5 0 0 1-5-5zm10 5h50v75h-50z" fill="#2196F3"/><path d="M205 80a5 5 0 0 1 5-5h60a5 5 0 0 1 5 5v35a5 5 0 0 1-5 5h-60a5 5 0 0 1-5-5zm10 5h50v25h-50zm-90 100a5 5 0 0 1 5-5h60a5 5 0 0 1 5 5v35a5 5 0 0 1-5 5h-60a5 5 0 0 1-5-5zm10 5h50v25h-50z" fill="#E91E63"/></svg>