<?xml version="1.0" encoding="UTF-8" standalone="no"?>
<!DOCTYPE svg PUBLIC "-//W3C//DTD SVG 1.1//EN" "http://www.w3.org/Graphics/SVG/1.1/DTD/svg11.dtd">
<svg version="1.1" xmlns="http://www.w3.org/2000/svg" xmlns:xlink="http://www.w3.org/1999/xlink" preserveAspectRatio="xMidYMid meet" viewBox="0 0 640 640" width="1440" height="1440"><defs><path d="M640 320C640 497 497 640 320 640C143 640 0 497 0 320C0 143 143 0 320 0C497 0 640 143 640 320Z" id="b3uoUEorco"></path><path d="M420 150L410 150C272 150 195.33 150 180 150C169 150 160 159 160 170C160 204 160 476 160 510C160 521 169 530 180 530C208 530 432 530 460 530C471 530 480 521 480 510C480 476 480 204 480 170C480 159 471 150 460 150C454.67 150 441.33 150 420 150Z" id="b6QYEWRqj"></path><path d="M450 490C450 495 445 500 440 500C416 500 224 500 200 500C195 500 190 495 190 490C190 460 190 220 190 190C190 185 195 180 200 180C224 180 416 180 440 180C445 180 450 185 450 190C450 250 450 460 450 490Z" id="j58Yod01b"></path><path d="M320 90C296 90 280 106 280 130C276.67 130 260 130 230 130L230 150L230 200L410 200L410 150L410 130L360 130C349.33 103.33 336 90 320 90ZM305 130C305 122 312 115 320 115C328 115 335 122 335 130C335 138 328 145 320 145C312 145 305 138 305 130Z" id="at1p82GHI"></path><path d="M410 172C410 172 410 172 410 172C410 188.8 410 198.13 410 200C410 200 410 200 410 200C302 200 242 200 230 200C230 200 230 200 230 200C230 183.2 230 173.87 230 172C230 172 230 172 230 172C338 172 398 172 410 172Z" id="d737qlGAC6"></path><path d="M410 250C410 255 406 260 401 260C390.8 260 309.2 260 299 260C294 260 290 255 290 250C290 245 294 240 299 240C305.8 240 339.8 240 401 240C407 243.33 410 246.67 410 250Z" id="a3ruI0gILN"></path><path d="M410 300C410 305 406 310 401 310C390.8 310 309.2 310 299 310C294 310 290 305 290 300C290 295 294 290 299 290C305.8 290 339.8 290 401 290C407 293.33 410 296.67 410 300Z" id="d6QtJdWKjq"></path><path d="M410 350C410 355 406 360 401 360C390.8 360 309.2 360 299 360C294 360 290 355 290 350C290 345 294 340 299 340C305.8 340 339.8 340 401 340C407 343.33 410 346.67 410 350Z" id="a5sRtBoU0"></path><path d="M410 400C410 405 406 410 401 410C390.8 410 309.2 410 299 410C294 410 290 405 290 400C290 395 294 390 299 390C305.8 390 339.8 390 401 390C407 393.33 410 396.67 410 400Z" id="c265XMSM"></path><path d="M240 270L224 254L234 244L240 250L260 230L270 240L240 270Z" id="k9RW3nxrW"></path><path d="M240 320L224 304L234 294L240 300L260 280L270 290L240 320Z" id="e1dipXosi"></path><path d="M240 370L224 354L234 344L240 350L260 330L270 340L240 370Z" id="cyxAvorZ8"></path><path d="M240 420L224 404L234 394L240 400L260 380L270 390L240 420Z" id="a1cdmGYuqj"></path></defs><g><g><g><use xlink:href="#b3uoUEorco" opacity="1" fill="#ffffff" fill-opacity="1"></use><g><use xlink:href="#b3uoUEorco" opacity="1" fill-opacity="0" stroke="#000000" stroke-width="1" stroke-opacity="0"></use></g></g><g><use xlink:href="#b6QYEWRqj" opacity="1" fill="#444c63" fill-opacity="1"></use><g><use xlink:href="#b6QYEWRqj" opacity="1" fill-opacity="0" stroke="#000000" stroke-width="1" stroke-opacity="0"></use></g></g><g><use xlink:href="#j58Yod01b" opacity="1" fill="#ffffff" fill-opacity="1"></use><g><use xlink:href="#j58Yod01b" opacity="1" fill-opacity="0" stroke="#000000" stroke-width="1" stroke-opacity="0"></use></g></g><g><use xlink:href="#at1p82GHI" opacity="1" fill="#ffb533" fill-opacity="1"></use><g><use xlink:href="#at1p82GHI" opacity="1" fill-opacity="0" stroke="#000000" stroke-width="1" stroke-opacity="0"></use></g></g><g><use xlink:href="#d737qlGAC6" opacity="1" fill="#ffd05c" fill-opacity="1"></use><g><use xlink:href="#d737qlGAC6" opacity="1" fill-opacity="0" stroke="#000000" stroke-width="1" stroke-opacity="0"></use></g></g><g><use xlink:href="#a3ruI0gILN" opacity="1" fill="#d3d5dd" fill-opacity="1"></use><g><use xlink:href="#a3ruI0gILN" opacity="1" fill-opacity="0" stroke="#000000" stroke-width="1" stroke-opacity="0"></use></g></g><g><use xlink:href="#d6QtJdWKjq" opacity="1" fill="#d3d5dd" fill-opacity="1"></use><g><use xlink:href="#d6QtJdWKjq" opacity="1" fill-opacity="0" stroke="#000000" stroke-width="1" stroke-opacity="0"></use></g></g><g><use xlink:href="#a5sRtBoU0" opacity="1" fill="#d3d5dd" fill-opacity="1"></use><g><use xlink:href="#a5sRtBoU0" opacity="1" fill-opacity="0" stroke="#000000" stroke-width="1" stroke-opacity="0"></use></g></g><g><use xlink:href="#c265XMSM" opacity="1" fill="#d3d5dd" fill-opacity="1"></use><g><use xlink:href="#c265XMSM" opacity="1" fill-opacity="0" stroke="#000000" stroke-width="1" stroke-opacity="0"></use></g></g><g><use xlink:href="#k9RW3nxrW" opacity="1" fill="#29ce7f" fill-opacity="1"></use><g><use xlink:href="#k9RW3nxrW" opacity="1" fill-opacity="0" stroke="#000000" stroke-width="1" stroke-opacity="0"></use></g></g><g><use xlink:href="#e1dipXosi" opacity="1" fill="#29ce7f" fill-opacity="1"></use><g><use xlink:href="#e1dipXosi" opacity="1" fill-opacity="0" stroke="#000000" stroke-width="1" stroke-opacity="0"></use></g></g><g><use xlink:href="#cyxAvorZ8" opacity="1" fill="#29ce7f" fill-opacity="1"></use><g><use xlink:href="#cyxAvorZ8" opacity="1" fill-opacity="0" stroke="#000000" stroke-width="1" stroke-opacity="0"></use></g></g><g><use xlink:href="#a1cdmGYuqj" opacity="1" fill="#29ce7f" fill-opacity="1"></use><g><use xlink:href="#a1cdmGYuqj" opacity="1" fill-opacity="0" stroke="#000000" stroke-width="1" stroke-opacity="0"></use></g></g></g></g></svg>