<svg xmlns="http://www.w3.org/2000/svg" width="400" height="300" stroke="#000" stroke-linecap="round" stroke-linejoin="round" fill="#fff" fill-rule="evenodd" font-family="Roboto" font-size="14" text-anchor="middle"><g stroke-linejoin="miter"><path d="M.5.5h400v300H.5z" fill="#EAEEF2" stroke-width="0"/><path d="M155.5 145.5l95 57.5" fill="none" stroke="#a2a2a2" stroke-width="10"/></g><path d="M225.5 200.5c0-13.85 11.15-25 25-25s25 11.15 25 25-11.15 25-25 25-25-11.15-25-25z" fill="#FFC107" stroke="#FFC107"/><path d="M155.5 145.5l95-45" fill="none" stroke="#a2a2a2" stroke-linejoin="miter" stroke-width="10"/><path d="M225.5 100.5c0-13.85 11.15-25 25-25s25 11.15 25 25-11.15 25-25 25-25-11.15-25-25z" fill="#E91E63" stroke="#E91E63"/><path d="M125.5 145.5c0-16.62 13.38-30 30-30s30 13.38 30 30-13.38 30-30 30-30-13.38-30-30z" fill="#2196F3" stroke="#2196f3"/></svg>