<?xml version="1.0" encoding="utf-8"?>
<!-- Generator: Adobe Illustrator 19.2.0, SVG Export Plug-In . SVG Version: 6.00 Build 0)  -->
<svg version="1.1" id="Layer_1" xmlns="http://www.w3.org/2000/svg" xmlns:xlink="http://www.w3.org/1999/xlink" x="0px" y="0px"
	 viewBox="0 0 960 960" style="enable-background:new 0 0 960 960;" xml:space="preserve">
<style type="text/css">
	.st0{fill:#33B98C;}
	.st1{fill:#F2F2F2;}
	.st2{fill:#FBB03B;}
	.st3{fill:#F7931E;}
	.st4{fill:#F15A24;}
	.st5{fill:#C1272D;}
	.st6{fill:#135468;}
	.st7{fill:#FFFFFF;}
	.st8{fill:#D1B07C;}
	.st9{fill:#A67C52;}
</style>
<g>
	<g>
		<path class="st0" d="M621.9,813.4H146.3V146.6h475.5c16.3,0,29.5,13.2,29.5,29.5v607.8C651.3,800.2,638.1,813.4,621.9,813.4z"/>
		<path class="st1" d="M558.8,457.9H310.2c-8.8,0-16-7.2-16-16v-146c0-8.8,7.2-16,16-16h248.6c8.8,0,16,7.2,16,16v146
			C574.8,450.7,567.7,457.9,558.8,457.9z"/>
		<path class="st2" d="M674.5,305h-23.2V194.4h23.2c7.9,0,14.4,6.4,14.4,14.4v81.8C688.9,298.5,682.5,305,674.5,305z"/>
		<path class="st3" d="M674.5,429.1h-23.2V318.6h23.2c7.9,0,14.4,6.4,14.4,14.4v81.8C688.9,422.7,682.5,429.1,674.5,429.1z"/>
		<path class="st4" d="M674.5,555.2h-23.2V444.6h23.2c7.9,0,14.4,6.4,14.4,14.4v81.8C688.9,548.8,682.5,555.2,674.5,555.2z"/>
		<path class="st5" d="M674.5,683.1h-23.2V572.5h23.2c7.9,0,14.4,6.4,14.4,14.4v81.8C688.9,676.7,682.5,683.1,674.5,683.1z"/>
		<rect x="146.3" y="146.6" class="st6" width="69.3" height="666.7"/>
		<rect x="343.6" y="323.5" class="st6" width="183.3" height="15.3"/>
		<rect x="343.6" y="358.6" class="st6" width="183.3" height="15.3"/>
		<rect x="343.6" y="393.6" class="st6" width="183.3" height="15.3"/>
	</g>
	<g>
		
			<ellipse transform="matrix(1 -3.676774e-03 3.676774e-03 1 -2.4737 2.4287)" class="st7" cx="659.3" cy="674" rx="110.2" ry="110.2"/>
		<ellipse transform="matrix(1 -3.676774e-03 3.676774e-03 1 -2.4737 2.4287)" class="st8" cx="659.3" cy="674" rx="82" ry="82"/>
		<path class="st9" d="M593.5,688.5c-0.2-45.3,36.4-82.1,81.7-82.3c14.5-0.1,28.2,3.7,40.1,10.3c-14.7-13.7-34.5-22.1-56.2-22
			c-45.3,0.2-81.8,37-81.7,82.3c0.1,30.7,17.1,57.4,42.2,71.4C603.6,733.2,593.6,712,593.5,688.5z"/>
		<path class="st7" d="M799.8,655.1l-39.6,0.1c-7.7,0-13.8,6.3-13.8,13.9v2.5c0,7.7,6.3,13.8,13.9,13.8l39.6-0.1
			c7.7,0,13.8-6.3,13.8-13.9v-2.5C813.6,661.2,807.4,655.1,799.8,655.1z"/>
	</g>
</g>
</svg>
